<svg width="157" height="45" viewBox="0 0 157 45" fill="none" xmlns="http://www.w3.org/2000/svg">
<path fill-rule="evenodd" clip-rule="evenodd" d="M71 31.4081C75.6944 31.4081 79.5 28.274 79.5 24.4081C79.5 20.5421 75.6944 17.4081 71 17.4081C66.3056 17.4081 64 21.5421 64 25.4081C64 29.274 66 63.4081 71 31.4081ZM72 27.4081C73.933 27.4081 75.5 26.0649 75.5 24.4081C75.5 22.7512 73.933 21.4081 72 21.4081C70.067 21.4081 68.5 22.7512 68.5 24.4081C68.5 26.0649 70.067 27.4081 72 27.4081Z" fill="black"/>
<rect x="83" y="5.40806" width="5" height="26" rx="2.5" fill="black"/>
<path fill-rule="evenodd" clip-rule="evenodd" d="M13.7682 25.4081C17.2957 25.4081 20.5 19.7201 20.5 14.826C20.5 12.0308 19.4548 5.442 17.901 0.30472C23.196 2.53532 27 8.67874 27 15.9081C27 25.0208 20.9558 32.4081 13.5 32.4081C6.04416 32.4081 0 25.0208 0 15.9081C0 8.31749 4.19362 1.92407 9.90359 0C8.42992 5.17845 7.5 11.9752 7.5 14.826C7.5 19.7201 10.2407 25.4081 13.7682 25.4081Z" fill="blue"/>
<path fill-rule="evenodd" clip-rule="evenodd" d="M56.5 16.4081C56.5 22.1081 55.2986 27.112 51.9999 29.9461L52 29.9081C52 26.7269 48.9635 22.4081 44.5625 22.4081C40.1615 22.4081 38 25.4669 38 28.6481C38 29.4955 38.1534 30.3002 38.4616 31.0247C33.8415 28.5292 32 22.9234 32 16.4081C32 7.5715 35.3873 0.408058 44.5 0.408058C53.6127 0.408058 56.5 7.5715 56.5 16.4081ZM44.6739 16.9081C48.2638 16.9081 51.1739 13.9979 51.1739 10.4081C51.1739 6.81821 48.2638 3.90806 44.6739 3.90806C41.0841 3.90806 38.1739 6.81821 38.1739 10.4081C38.1739 13.9979 41.0841 16.9081 44.6739 16.9081Z" fill="#FFF621"/>
<path fill-rule="evenodd" clip-rule="evenodd" d="M106.079 19.5769C105.767 18.5841 105.332 17.6859 104.72 16.9025C104.108 16.1191 103.36 15.5518 102.476 15.1263C102.225 14.9913 101.919 14.8562 101.661 14.7886C101.661 14.7886 101.565 14.7346 101.477 14.7346C101.436 14.7346 101.395 14.7346 101.341 14.6873C101.307 14.6873 101.259 14.6873 101.259 14.6401L100.614 14.505C100.138 14.424 99.5258 14.3834 98.8188 14.424C97.7718 14.4712 96.8473 14.6941 96.0315 15.0723C95.1477 15.5045 94.3998 16.1123 93.788 16.8417C93.1761 17.6251 92.741 18.4828 92.4283 19.5229C92.1292 20.5089 92 21.63 92 22.7511C92 23.9195 92.136 25 92.4351 25.9928C92.7478 26.9856 93.2305 27.8838 93.7948 28.6267C94.2367 29.1467 94.7194 29.5722 95.2904 29.9639C95.5488 30.1395 95.7663 30.2678 96.0383 30.3961H96.0722C96.0722 30.3961 96.1198 30.3961 96.1198 30.4366C96.1394 30.4366 96.1496 30.4476 96.1602 30.4589C96.1716 30.4712 96.1835 30.4839 96.2082 30.4839C96.6433 30.7 97.126 30.8216 97.6495 30.9161C99.1791 31.2133 100.491 31.0039 100.491 31.0039C101.191 30.9161 101.851 30.7 102.463 30.4366C102.879 30.2406 103.26 30.0097 103.61 29.7473L105.759 32.4081L107.926 32.3816L108 29.9575L107.81 29.8011L106.346 27.9388L106.27 25.3834C106.451 24.5737 106.535 23.7098 106.535 22.7916C106.535 21.63 106.399 20.5494 106.093 19.5499L106.079 19.5769ZM95.8819 20.5224C96.0519 19.8471 96.2694 19.192 96.5753 18.6719C96.8813 18.1587 97.2756 17.7264 97.7175 17.4293C98.1526 17.1254 98.6692 16.9565 99.2471 16.9565C99.8182 16.9565 100.301 17.0781 100.743 17.382C101.171 17.6792 101.525 18.0574 101.83 18.5436C102.136 19.0637 102.354 19.6242 102.531 20.3131C102.707 21.0019 102.803 21.6975 102.803 22.4742V22.7308C102.803 23.5075 102.707 24.2842 102.572 24.973C102.402 25.6686 102.177 26.2697 101.871 26.7965C101.572 27.3097 101.178 27.6947 100.743 27.9986C100.308 28.3025 99.7774 28.4308 99.2131 28.4308C98.6352 28.4308 98.1118 28.2958 97.6699 27.9986C97.2348 27.6947 96.8405 27.3097 96.5345 26.783C96.2286 26.2697 96.0111 25.6686 95.8343 24.973C95.6575 24.2842 95.6168 23.5075 95.6168 22.7308L95.6186 22.7025C95.6656 21.9684 95.7142 21.2093 95.8887 20.5292L95.8819 20.5224Z" fill="black"/>
<path d="M128.5 24.5C130.314 26.4555 136.353 25.1842 138.167 23.2287C139.79 21.4791 139.79 18.9665 138.167 17.2169C136.353 15.2614 133.592 15.965 131.202 17.2169C126.798 19.523 127.069 26.8606 131.202 29.5942C134.036 31.4686 137.166 31.4686 140 29.5942" stroke="black" stroke-width="3.5"/>
<path d="M123 18.213C120.385 16.5957 117.615 16.5957 115 18.213C111 20.6865 111 27.3135 115 29.787C117.615 31.4043 120.385 31.4043 123 29.787" stroke="#000000" stroke-width="3.5"/>
<path d="M153 18C153 18 148.285 15.8137 146.285 17.9491C144.572 19.7794 144.572 21.6697 146.285 23.5C148.285 25.6354 151.775 22.6728 153.5 25C154.671 26.5792 155.242 27.3817 154.152 29.0089C152.375 31.6637 147.277 32.1548 145.5 29.5" stroke="black" stroke-width="3.5"/>
</svg>
